<?xml version="1.0" encoding="UTF-8" standalone="no"?>
<!-- Created with Inkscape (http://www.inkscape.org/) -->

<svg
   xmlns:dc="http://purl.org/dc/elements/1.1/"
   xmlns:cc="http://creativecommons.org/ns#"
   xmlns:rdf="http://www.w3.org/1999/02/22-rdf-syntax-ns#"
   xmlns:svg="http://www.w3.org/2000/svg"
   xmlns="http://www.w3.org/2000/svg"
   xmlns:sodipodi="http://sodipodi.sourceforge.net/DTD/sodipodi-0.dtd"
   xmlns:inkscape="http://www.inkscape.org/namespaces/inkscape"
   height="297mm"
   width="210mm"
   viewBox="0 0 744.09448819 1052.3622047"
   id="svg2"
   version="1.1"
   inkscape:version="0.91 r13725"
   sodipodi:docname="logo DomWorks.svg">
  <defs
     id="defs8" />
  <sodipodi:namedview
     pagecolor="#ffffff"
     bordercolor="#666666"
     borderopacity="1"
     objecttolerance="10"
     gridtolerance="10"
     guidetolerance="10"
     inkscape:pageopacity="0"
     inkscape:pageshadow="2"
     inkscape:window-width="1366"
     inkscape:window-height="704"
     id="namedview6"
     showgrid="false"
     inkscape:zoom="0.89702955"
     inkscape:cx="135.345"
     inkscape:cy="849.283"
     inkscape:window-x="0"
     inkscape:window-y="30"
     inkscape:window-maximized="1"
     inkscape:current-layer="svg2"
     inkscape:object-nodes="true"
     inkscape:snap-intersection-paths="false"
     inkscape:snap-global="true"
     inkscape:snap-bbox="true"
     inkscape:snap-bbox-edge-midpoints="false"
     inkscape:snap-bbox-midpoints="true"
     showguides="true"
     inkscape:guide-bbox="true" />
  <metadata
     id="metadata4">
    <rdf:RDF>
      <cc:Work
         rdf:about="">
        <dc:format>image/svg+xml</dc:format>
        <dc:type
           rdf:resource="http://purl.org/dc/dcmitype/StillImage" />
        <dc:title />
      </cc:Work>
    </rdf:RDF>
  </metadata>
  <rect
     style="fill:#2ca05a;stroke-width:8.80000019;stroke-linejoin:round;stroke-miterlimit:4;stroke-dasharray:none"
     id="rect6224"
     width="122.62695"
     height="122.62695"
     x="82.494492"
     y="62.428265"
     inkscape:export-xdpi="110.09"
     inkscape:export-ydpi="110.09" />
  <path
     style="fill:#000000;fill-opacity:1;fill-rule:nonzero;stroke:none;stroke-width:1px;stroke-linecap:butt;stroke-linejoin:miter;stroke-opacity:1"
     id="path6042"
     d="m 419.364,82.853627 c -1.81762,1.860802 -2.32339,4.470249 -2.56628,6.961426 0.0954,2.713782 1.08381,5.552168 3.40349,7.174498 0.43613,0.305022 0.9367,0.505556 1.40505,0.758333 1.46929,0.288992 1.8054,0.501006 3.35126,0.173237 0.6246,-0.132434 2.34367,-0.976019 1.81091,-0.62413 -1.58295,1.045544 -3.22496,2.045235 -4.99517,2.727339 -0.63133,0.24327 1.04531,-0.86815 1.49107,-1.377119 0.47315,-0.540243 0.83409,-1.169286 1.25113,-1.753929 1.5058,-2.745691 2.54519,-6.244016 0.90635,-9.20324 -0.27032,-0.488113 -0.67738,-0.886827 -1.01607,-1.33024 -2.43115,-2.000993 -5.54282,-2.877036 -8.6099,-1.911929 -0.54259,0.170736 -1.04668,0.445754 -1.57002,0.668631 11.30984,-6.27923 2.94724,-2.584538 2.68713,0.821765 -0.0191,0.250703 0.0644,0.49873 0.0965,0.748094 0.88862,1.568119 2.64762,2.034162 4.31419,1.651107 2.63005,-0.859276 7.12704,-3.592211 -5.27946,3.179114 -0.15605,0.08517 0.2867,-0.214674 0.40378,-0.348464 0.0942,-0.107688 0.14831,-0.244774 0.22246,-0.367161 0,0 7.45611,-3.457899 7.45611,-3.457899 l 0,0 c -0.94407,3.758318 -5.75217,5.1396 -9.33573,5.857646 -2.05567,0.0331 -3.95048,-0.84778 -4.94983,-2.714994 -0.17259,-0.920547 -0.33167,-1.183901 -0.0386,-2.137797 1.30027,-4.231559 8.13962,-6.462804 10.63276,-8.09152 0.54595,-0.176986 1.0771,-0.408665 1.63783,-0.530958 3.32292,-0.724708 6.58195,0.443505 9.09595,2.619953 0.37632,0.508297 0.82712,0.969128 1.12896,1.524891 1.71615,3.159811 0.82583,6.895058 -0.67851,9.912803 -0.38681,0.627219 -0.71768,1.292594 -1.16043,1.881655 -2.4129,3.210229 -6.39777,4.619441 -9.87994,6.405501 -0.97765,0.50146 -2.82874,0.61908 -3.89328,0.47234 -0.58305,-0.0804 -1.13077,-0.3271 -1.69615,-0.49065 -0.50781,-0.30093 -1.05299,-0.54628 -1.52344,-0.90281 -2.42,-1.834003 -3.48515,-4.897173 -3.7212,-7.80791 0.14371,-2.570748 0.53763,-5.133942 1.9913,-7.328087 0,0 7.62769,-3.159496 7.62769,-3.159496 z"
     inkscape:connector-curvature="0" />
  <path
     style="fill:#000000;fill-opacity:1;fill-rule:nonzero;stroke:none;stroke-width:1px;stroke-linecap:butt;stroke-linejoin:miter;stroke-opacity:1"
     id="path6044"
     d="m 427.27095,95.169386 c -0.30076,4.690973 -0.2621,9.391604 -0.16882,14.088204 0.15601,5.51216 0.92195,10.99609 1.9141,16.41505 0,0 -6.90311,3.65389 -6.90311,3.65389 l 0,0 c -0.7293,-5.53149 -1.39499,-11.08308 -1.65706,-16.65853 -0.17278,-4.59286 -0.26652,-9.18815 -0.48624,-13.778505 0,0 7.30113,-3.720109 7.30113,-3.720109 z"
     inkscape:connector-curvature="0" />
  <path
     style="fill:#000000;fill-opacity:1;fill-rule:nonzero;stroke:none;stroke-width:1px;stroke-linecap:butt;stroke-linejoin:miter;stroke-opacity:1"
     id="path6048"
     d="m 369.06777,129.69989 c 0.5478,-0.0217 1.09655,-0.026 1.64338,-0.0651 1.03146,-0.0737 2.06015,-0.18222 3.09022,-0.27333 1.5879,-0.12909 3.17446,-0.2758 4.76369,-0.38726 7.71174,-0.54086 15.43406,-0.96159 23.15294,-1.38261 16.44342,-0.99141 32.91391,-1.10238 49.38063,-1.19613 4.80617,-0.0371 9.60516,0.19751 14.40233,0.44935 4.79145,0.2707 9.58302,0.26358 14.37545,0.0504 3.94851,-0.23204 7.87721,-0.71761 11.7707,-1.403 0,0 -6.16306,4.62598 -6.16306,4.62598 l 0,0 c -3.85344,0.52802 -7.72365,0.94271 -11.60691,1.1788 -4.95608,0.24362 -9.92283,0.37405 -14.88402,0.21533 -4.47369,-0.31523 -8.91735,-1.01987 -13.40876,-1.122 -16.19359,-0.55372 -32.40572,-0.54133 -48.57446,0.66804 -8.02353,0.58525 -16.05089,1.16772 -24.04621,2.07756 -6.26541,0.71297 -3.44009,0.50204 -8.57935,1.16799 -0.64175,0.0832 -1.28724,0.13439 -1.93086,0.20159 0,0 6.61429,-4.80557 6.61429,-4.80557 z"
     inkscape:connector-curvature="0" />
  <path
     style="fill:#000000;fill-opacity:1;fill-rule:nonzero;stroke:none;stroke-width:1px;stroke-linecap:butt;stroke-linejoin:miter;stroke-opacity:1"
     id="path6050"
     d="m 489.72397,126.72828 c -0.37347,2.99081 -0.6492,5.99277 -0.97294,8.98933 -0.49562,4.2465 -0.72308,8.51471 -0.79001,12.78752 -0.01,2.13153 0.008,4.26323 0.0353,6.39461 0,0 -7.25777,3.69752 -7.25777,3.69752 l 0,0 c 0.0294,-2.18411 0.085,-4.36727 0.21097,-6.54835 0.21151,-4.29527 0.3883,-8.59614 0.84581,-12.87418 0.26666,-2.89643 0.43921,-5.79675 0.57801,-8.70112 0,0 7.35063,-3.74533 7.35063,-3.74533 z"
     inkscape:connector-curvature="0" />
  <path
     style="fill:#000000;fill-opacity:1;fill-rule:nonzero;stroke:none;stroke-width:1px;stroke-linecap:butt;stroke-linejoin:miter;stroke-opacity:1"
     id="path6052"
     d="m 477.2385,154.23779 c -2.5338,0.89949 -6.94444,2.99504 4.21205,-2.6398 0.37102,-0.1874 -0.65786,0.51257 -0.94739,0.81082 -0.83274,0.85782 -0.95959,1.22882 -1.55701,2.26385 -0.91074,2.22407 -1.16789,4.84491 0.19427,6.96605 0.2786,0.43384 0.65789,0.79404 0.98684,1.19106 2.18267,1.85183 5.11037,3.23078 8.05051,2.82859 0.46645,-0.0638 0.91077,-0.23891 1.36615,-0.35837 -1.92351,1.04148 -3.76536,2.25046 -5.77054,3.12445 -0.41767,0.18204 0.68038,-0.62323 0.92045,-1.01047 0.28709,-0.4631 0.4977,-0.97834 0.63875,-1.50464 0.60413,-2.25412 0.0402,-4.29978 -0.52559,-6.4821 -1.27296,-3.01471 -0.54613,-1.5626 -2.17427,-4.35944 0,0 6.649,-3.83891 6.649,-3.83891 l 0,0 c 1.67161,2.91699 0.9157,1.40703 2.26143,4.53302 0.81611,2.7619 1.66526,5.68909 0.46709,8.50192 -0.19457,0.45677 -0.38001,0.98602 -0.79389,1.26024 -2.56773,1.70129 -5.34956,3.05494 -8.02433,4.58241 -0.47578,0.064 -0.94745,0.17883 -1.42733,0.19211 -2.4183,0.0669 -5.00248,-0.90048 -6.99177,-2.23067 -0.51131,-0.3419 -0.94992,-0.78167 -1.42488,-1.1725 -0.36753,-0.44728 -0.78699,-0.85652 -1.10258,-1.34185 -1.49012,-2.29155 -1.37879,-5.11657 -0.55978,-7.61467 0.55769,-1.16031 0.62663,-1.46818 1.41385,-2.47548 2.55978,-3.2754 6.77462,-4.93879 10.65937,-6.21149 0,0 -6.5204,4.98587 -6.5204,4.98587 z"
     inkscape:connector-curvature="0" />
  <path
     style="fill:#000000;fill-opacity:1;fill-rule:nonzero;stroke:none;stroke-width:1px;stroke-linecap:butt;stroke-linejoin:miter;stroke-opacity:1"
     d="m 373.79386,128.88619 -7.36718,3.7539 c 0.1827,3.23272 0.005,6.48449 -0.14258,9.7168 -0.29364,5.65901 -0.46341,11.32236 -0.625,16.98633 -8.3e-4,0.10227 -0.005,0.20439 -0.006,0.30664 2.27716,0.0174 4.55143,0.0664 6.82617,0.125 0.007,-1.29482 0.0166,-2.58974 -0.006,-3.88672 0.053,-5.66149 0.21117,-11.32284 0.6582,-16.96875 0.24553,-3.34235 0.47869,-6.68712 0.66211,-10.0332 z m -7.4375,42.86523 c -0.0658,0.003 -0.13149,0.007 -0.19726,0.01 0.069,-0.001 0.13801,-9.2e-4 0.20703,-0.002 -0.003,-0.003 -0.007,-0.005 -0.01,-0.008 z m 1.05274,18.84376 c -0.0846,0.0515 -0.16789,0.105 -0.25391,0.15429 0.0852,0.001 0.17032,-4.8e-4 0.25586,-0.002 0.002,-0.0499 -0.002,-0.10134 -0.002,-0.15234 z m -6.00586,13.375 c -0.0157,0.0932 -0.009,0.0679 -0.0312,0.20312 l 0.0801,-0.0391 c -0.0158,-0.0554 -0.0354,-0.10731 -0.0488,-0.16406 z"
     id="path6054"
     inkscape:connector-curvature="0" />
  <path
     style="fill:#000000;fill-opacity:1;fill-rule:nonzero;stroke:none;stroke-width:1px;stroke-linecap:butt;stroke-linejoin:miter;stroke-opacity:1"
     d="m 370.70873,154.19674 -5.27398,4.68499 c 0.0865,0.25031 0.15047,0.51045 0.21849,0.76813 7.1238,-0.005 14.24921,0.0305 21.37412,0.0582 11.08744,0.16385 22.1814,0.18354 33.26556,0.5196 1.45432,0.25759 5.59122,-0.34741 6.593,1.25307 0.46056,0.7357 0.37577,2.0009 0.40942,2.75185 -0.14591,4.28278 -1.25184,8.45523 -1.93365,12.67278 -0.13787,1.09295 -0.28939,2.1845 -0.49542,3.26659 l 6.88516,-4.4011 c 0.0603,-1.0337 0.12755,-2.06798 0.25864,-3.09577 0.56957,-4.27182 1.63199,-8.47599 1.83456,-12.79048 -0.0624,-1.21486 0.0747,-2.32082 -0.64901,-3.3875 -1.37337,-2.02431 -5.54325,-1.04558 -7.48509,-1.19446 -11.23564,0.21083 -22.46979,0.33903 -33.70362,-0.11346 -7.10009,-0.20172 -14.21914,-0.40529 -21.29625,-0.99266 l -0.002,2.5e-4 z"
     id="path6056"
     inkscape:connector-curvature="0" />
  <path
     style="fill:#000000;fill-opacity:1;fill-rule:nonzero;stroke:none;stroke-width:1px;stroke-linecap:butt;stroke-linejoin:miter;stroke-opacity:1"
     id="path6058"
     d="m 429.15624,173.88333 c -0.30117,1.5887 -0.58972,3.25902 -0.1129,4.84749 0.10761,0.35852 0.29086,0.68983 0.4363,1.03474 0.44739,0.72426 1.00844,1.57747 1.87732,1.85932 0.1671,0.0542 0.36911,0.0831 0.52697,0.006 0.17511,-0.0855 0.54981,-0.53634 0.37654,-0.44718 -2.23239,1.1488 -4.39406,2.43015 -6.59109,3.64522 0.97451,-1.75976 0.3903,-3.22435 -0.80311,-4.65697 -1.14252,-1.06559 -0.50262,-0.55806 -1.94492,-1.49022 0,0 6.70128,-4.30586 6.70128,-4.30586 l 0,0 c 1.60904,1.03244 0.89476,0.47288 2.17112,1.64195 1.45443,1.78116 1.97717,3.27161 1.38298,5.55917 -5.32377,3.40107 -7.46774,7.49726 -10.6988,2.11651 -0.97457,-2.29772 -1.02537,-3.75798 -0.73179,-6.18748 0,0 7.4101,-3.62276 7.4101,-3.62276 z"
     inkscape:connector-curvature="0" />
  <path
     style="fill:#000000;fill-opacity:1;fill-rule:nonzero;stroke:none;stroke-width:1px;stroke-linecap:butt;stroke-linejoin:miter;stroke-opacity:1"
     id="path6060"
     d="m 364.20407,182.46756 c 12.33261,-6.97407 7.02116,-4.56287 4.91189,-2.40163 -0.93279,0.95577 -1.53248,1.94845 -2.08598,3.15049 -0.64202,2.49726 0.21296,4.32494 2.59011,5.45129 0.58821,0.2787 1.22857,0.43044 1.84286,0.64566 1.80767,0.1885 2.36312,0.42523 4.14606,-0.0941 0.63916,-0.18618 2.40722,-1.1346 1.82351,-0.81452 -1.69324,0.92851 -3.27345,2.21106 -5.15589,2.64186 -0.68653,0.15712 0.91578,-1.09395 1.20267,-1.73715 0.3251,-0.72887 0.40359,-1.54431 0.60539,-2.31647 -0.0684,-0.95476 -0.01,-1.92728 -0.20515,-2.86427 -1.01809,-4.87587 -4.40957,-8.98486 -8.26144,-11.96195 -0.92945,-0.71837 -1.95809,-1.29832 -2.93713,-1.94748 -1.80558,-0.8265 -3.28,-1.73024 -5.30637,-1.85435 -0.70461,-0.0432 -1.39839,0.19465 -2.09758,0.29197 0,0 6.25387,-4.61161 6.25387,-4.61161 l 0,0 c 0.71473,-0.003 1.43906,-0.12525 2.14419,-0.008 2.04459,0.33864 3.40336,1.26085 5.2203,2.21419 0.97681,0.68975 2.00262,1.31489 2.93043,2.06926 3.9039,3.17412 7.40039,7.36696 8.73352,12.3132 0.26459,0.9817 0.29003,2.01267 0.43504,3.01901 -0.18654,1.11625 -0.3344,3.62909 -1.46343,4.48713 -2.98498,2.26854 -7.80771,6.06358 -12.30098,5.8701 -0.75056,-0.0323 -1.48544,-0.22587 -2.22816,-0.3388 -0.66573,-0.25152 -1.36128,-0.43508 -1.99719,-0.75457 -2.6617,-1.33725 -3.74702,-3.46054 -3.23703,-6.34835 0.15444,-0.42451 0.26923,-0.86563 0.4633,-1.27355 1.97332,-4.1477 6.74877,-5.9516 10.4376,-7.99779 0,0 -6.46441,5.17091 -6.46441,5.17091 z"
     inkscape:connector-curvature="0" />
  <path
     style="fill:#000000;fill-opacity:1;fill-rule:nonzero;stroke:none;stroke-width:1px;stroke-linecap:butt;stroke-linejoin:miter;stroke-opacity:1"
     id="path6105"
     d="m 373.79401,154.52717 c -0.16369,2.88639 -0.18913,5.77908 -0.20521,8.66943 -0.0585,3.54103 0.21646,7.07517 0.47519,10.60377 0.14247,1.67362 0.21506,3.35015 0.23932,5.02907 0.003,0.22415 0.005,0.44829 0.008,0.67243 0,0 -7.28133,3.71455 -7.28133,3.71455 l 0,0 c 2.9e-4,-0.22428 5.8e-4,-0.44857 8.8e-4,-0.67285 -0.006,-1.69356 -0.0234,-3.38728 -0.0656,-5.08035 -0.10354,-3.5744 -0.34032,-7.14565 -0.33266,-10.722 -0.0158,-2.82059 -0.0379,-5.64393 -0.20521,-8.46031 0,0 7.36713,-3.75374 7.36713,-3.75374 z"
     inkscape:connector-curvature="0" />
  <path
     style="fill:#000000;fill-opacity:1;fill-rule:nonzero;stroke:none;stroke-width:1px;stroke-linecap:butt;stroke-linejoin:miter;stroke-opacity:1"
     id="path6107"
     d="m 304.01635,306.66774 c 3.6543,-0.67823 7.38589,-0.71995 11.08922,-0.83264 7.66789,-0.17271 15.3355,-0.28853 23.00476,-0.18259 0.90673,0.015 1.81347,0.03 2.7202,0.0451 0,0 -6.18129,4.4602 -6.18129,4.4602 l 0,0 c -0.86467,-0.0428 -1.72934,-0.0857 -2.59402,-0.12855 -7.64229,-0.27078 -15.29182,-0.17733 -22.93012,0.19413 -3.86904,0.24479 -7.88696,0.34113 -11.60264,1.55091 0,0 6.49389,-5.10654 6.49389,-5.10654 z"
     inkscape:connector-curvature="0" />
  <path
     style="fill:#000000;fill-opacity:1;fill-rule:nonzero;stroke:none;stroke-width:1px;stroke-linecap:butt;stroke-linejoin:miter;stroke-opacity:1"
     id="path6109"
     d="m 300.97763,296.51107 c -2.15731,1.9858 -4.3803,3.97228 -6.0733,6.38756 -0.34906,0.49798 -0.64751,1.02958 -0.97126,1.54437 -0.96541,1.82985 -2.16413,3.91715 -1.36635,6.01002 0.11654,0.0909 0.21232,0.218 0.34962,0.27273 0.36726,0.14637 0.64654,-0.0162 0.96665,-0.18882 0.23326,-0.12577 0.90702,-0.54807 0.67507,-0.41991 -6.31098,3.48718 -8.0114,4.94273 -5.1763,2.6631 2.3636,-2.19438 4.69281,-4.43034 6.95877,-6.72572 1.43669,-1.48529 2.34384,-3.22183 2.54974,-5.27564 0.0293,-1.68943 -0.28963,-2.50457 -1.74291,-3.38876 -0.63977,-0.26414 -1.36171,-0.56641 -2.07008,-0.57132 -0.24927,-0.002 -0.506,0.0244 -0.73941,0.11195 -0.25808,0.0968 -0.94865,0.56131 -0.7062,0.43019 2.01559,-1.08998 4.01763,-2.20483 6.02644,-3.30724 -2.6785,2.35967 -4.44295,5.51932 -5.8535,8.7519 -0.8324,2.05219 -1.41845,4.18677 -0.84001,6.37276 0.29736,1.10156 0.91258,1.6038 2.04037,1.52759 0.20117,-0.0509 0.41149,-0.0739 0.60351,-0.15258 0.22342,-0.0915 0.41686,-0.24425 0.63218,-0.35344 0.24589,-0.12469 0.9891,-0.48582 0.75048,-0.34771 -2.07348,1.20008 -4.14932,2.39741 -6.25765,3.53515 -0.27826,0.15016 0.52069,-0.36104 0.75958,-0.56818 0.24235,-0.21015 0.45361,-0.45367 0.68042,-0.6805 1.33626,-1.4097 1.90787,-3.19525 2.38541,-5.02866 0.41204,-1.75184 0.57534,-3.53539 0.42607,-5.3268 -0.21192,-0.72058 -0.58173,-0.9025 -1.27831,-0.55121 -0.27508,0.13874 -1.04877,0.64498 -0.77509,0.5035 6.14459,-3.17659 7.45652,-4.80253 4.75678,-1.96415 -2.67451,3.32167 -3.68245,6.51034 -4.23125,10.66873 -0.16149,2.96583 0.48943,5.46394 2.38849,7.75008 1.20528,1.04897 2.83932,1.68881 4.45671,1.41103 0.37329,-0.0641 0.73027,-0.20128 1.09541,-0.30191 3.89999,-2.12302 -3.0168,1.81476 -4.61375,2.54652 -0.4406,0.2019 0.72921,-0.64166 1.0553,-1.00022 1.15794,-1.27322 1.95529,-2.73959 2.73861,-4.25522 1.12293,-2.5564 1.77159,-5.30048 1.70846,-8.09438 -0.40492,-2.9981 -2.1257,-4.64995 -4.45082,-6.35481 -1.37605,-0.78022 -2.87521,-1.63624 -4.48426,-1.82305 -0.29811,-0.0346 -0.59999,0.0165 -0.89998,0.0248 0,0 6.58223,-4.72276 6.58223,-4.72276 l 0,0 c 2.01413,0.28306 3.84679,1.11718 5.52063,2.27033 2.53954,1.93558 4.27838,3.6694 4.84953,6.94357 0.16695,3.02907 -0.53056,5.69932 -1.64264,8.50646 -2.85776,5.90618 -5.58857,8.29853 -12.76349,10.81394 -0.40434,0.0607 -0.80466,0.16176 -1.21303,0.18194 -1.84523,0.0912 -3.57916,-0.73036 -4.84753,-2.0243 -1.94933,-2.60102 -2.66261,-5.13916 -2.50762,-8.40586 0.54831,-4.20531 1.44441,-7.55921 3.96746,-11.05898 2.8581,-3.5346 1.07092,-1.60358 8.87953,-6.12811 1.28073,-0.74208 2.54642,0.0369 2.92851,1.30944 0.15606,1.87175 0.0491,3.74244 -0.35627,5.58206 -0.42769,1.919 -0.93273,3.845 -2.22176,5.38806 -2.37165,3.00764 -5.03969,3.65191 -9.00473,5.90147 -0.37509,0.21282 -1.12771,0.4777 -1.56223,0.54488 -0.24101,0.0373 -0.48746,0.0168 -0.73119,0.0252 -1.44989,-0.30093 -2.12894,-0.97424 -2.53316,-2.41009 -0.59542,-2.39869 -0.10396,-4.72158 0.86059,-6.97159 1.3907,-3.26215 3.10129,-6.43499 5.53126,-9.05051 4.57185,-2.74622 7.19434,-6.56797 11.82331,-4.03981 1.51626,1.10042 2.18339,2.23485 2.14672,4.14399 -0.10943,2.24226 -0.94362,4.19986 -2.47188,5.86329 -2.25142,2.29133 -4.62249,4.46262 -6.87359,6.75472 -2.96466,2.82823 -1.12203,1.19689 -8.62462,5.40353 -1.0603,0.59451 -2.10951,0.16852 -2.7588,-0.74761 -0.90735,-2.4899 0.13118,-4.59223 1.32977,-6.80216 0.87781,-1.46133 1.07614,-1.89918 2.16055,-3.25362 1.36485,-1.70473 3.01351,-3.1502 4.46823,-4.77317 0,0 7.59058,-3.07606 7.59058,-3.07606 z"
     inkscape:connector-curvature="0" />
  <path
     style="fill:#000000;fill-opacity:1;fill-rule:nonzero;stroke:none;stroke-width:1px;stroke-linecap:butt;stroke-linejoin:miter;stroke-opacity:1"
     id="path6111"
     d="m 340.89119,268.37755 c -1.04768,6.52816 -1.86788,13.09281 -2.67264,19.65728 -1.23923,10.69736 -1.55945,21.46717 -1.66568,32.22606 -0.0574,6.14034 0.10344,12.27911 0.22418,18.41755 0.0637,2.76328 0.10478,5.52692 0.12353,8.29085 0.0124,2.2476 0.004,4.49511 0.01,6.74271 0.001,0.80437 -0.0178,0.47042 0.0256,1.00318 0,0 -7.54459,3.45479 -7.54459,3.45479 l 0,0 c 0.41221,-0.22847 0.19311,-0.0376 0.34294,-0.80151 0.005,-2.24949 -0.003,-4.49887 0.004,-6.74839 0.0106,-2.79995 0.0357,-5.59983 0.0884,-8.39935 0.10947,-6.26623 0.31472,-12.53031 0.48301,-18.79511 0.34257,-10.76728 0.64848,-21.54618 1.63158,-32.27842 0.41597,-4.27674 0.84567,-8.54366 1.18483,-12.82662 0.13289,-1.67817 0.36236,-3.34899 0.45122,-5.03006 0.0207,-0.39152 -0.0134,-0.78402 -0.0201,-1.17603 0,0 7.33413,-3.73693 7.33413,-3.73693 z"
     inkscape:connector-curvature="0" />
  <path
     style="fill:#000000;fill-opacity:1;fill-rule:nonzero;stroke:none;stroke-width:1px;stroke-linecap:butt;stroke-linejoin:miter;stroke-opacity:1"
     id="path6113"
     d="m 339.96486,267.36563 c 5.45887,0.55951 10.9598,0.68783 16.44106,0.92778 9.22337,0.29362 18.4253,1.02442 27.63959,1.50759 1.00152,0.0182 2.00303,0.0364 3.00455,0.0546 0,0 -6.13394,4.41127 -6.13394,4.41127 l 0,0 c -0.92941,-0.0755 -1.85882,-0.15105 -2.78823,-0.22658 -9.16629,-0.75158 -18.34876,-1.38955 -27.54709,-1.5449 -5.75265,-0.14166 -11.50587,-0.27068 -17.26021,-0.30239 0,0 6.64427,-4.82734 6.64427,-4.82734 z"
     inkscape:connector-curvature="0" />
  <path
     style="fill:#000000;fill-opacity:1;fill-rule:nonzero;stroke:none;stroke-width:1px;stroke-linecap:butt;stroke-linejoin:miter;stroke-opacity:1"
     id="path6115"
     d="m 341.57786,306.93525 c 4.65272,0.26683 9.31444,0.15892 13.97134,0.25551 2.72042,0.14146 5.43408,0.38292 8.14885,0.60311 0,0 -6.46546,4.60034 -6.46546,4.60034 l 0,0 c -2.61193,-0.30933 -5.22632,-0.61445 -7.85497,-0.7429 -4.81863,-0.13979 -9.64306,-0.10133 -14.45901,0.12216 0,0 6.65925,-4.83822 6.65925,-4.83822 z"
     inkscape:connector-curvature="0" />
  <path
     style="fill:#000000;fill-opacity:1;fill-rule:nonzero;stroke:none;stroke-width:1px;stroke-linecap:butt;stroke-linejoin:miter;stroke-opacity:1"
     id="path6117"
     d="m 339.78731,349.2864 c 6.00852,0.50991 12.03842,0.65704 18.06455,0.80447 12.57418,0.25437 25.15185,0.28158 37.72803,0.21894 4.43557,-0.0252 8.87,-0.0988 13.30375,-0.22309 0,0 -6.03146,4.38204 -6.03146,4.38204 l 0,0 c -4.22477,-0.12905 -8.4504,-0.20052 -12.67714,-0.23298 -12.64156,-0.091 -25.28342,-0.0824 -37.92525,-0.086 -6.38284,-0.0136 -12.7712,-0.10712 -19.1517,-0.003 0,0 6.68922,-4.86 6.68922,-4.86 z"
     inkscape:connector-curvature="0" />
  <path
     style="fill:#000000;fill-opacity:1;fill-rule:nonzero;stroke:none;stroke-width:1px;stroke-linecap:butt;stroke-linejoin:miter;stroke-opacity:1"
     id="path6119"
     d="m 389.82206,265.67927 c -1.57317,1.56245 -2.2425,3.69191 -2.76159,5.78806 -0.55682,2.57372 -0.0698,2.90853 2.4492,3.10139 1.19642,-0.15106 1.47541,-0.11237 2.62885,-0.56962 0.43698,-0.17323 1.67416,-0.85475 1.26435,-0.62451 -1.89641,1.06543 -3.73425,2.25537 -5.72549,3.13086 -0.39872,0.17531 0.62952,-0.61573 0.85398,-0.989 0.20441,-0.33994 0.27469,-0.74427 0.41204,-1.1164 -0.0267,-0.4348 0.0347,-0.88421 -0.0802,-1.30441 -0.91133,-3.33326 -4.88832,-4.75629 -7.75057,-5.7955 -2.10013,-0.51624 -4.19895,-0.64055 -6.23592,0.21634 -0.61696,0.25953 -2.34744,1.28452 -1.74312,0.99676 5.43217,-2.5867 6.41597,-4.16376 3.81499,-1.06498 -1.33388,2.16803 -2.91332,5.39424 -1.66403,7.96779 0.188,0.38728 0.5267,0.68111 0.79005,1.02166 2.45217,1.7661 4.58706,1.56307 7.44771,1.27502 0,0 -6.17826,4.56595 -6.17826,4.56595 l 0,0 c -3.23383,0.20443 -5.44666,0.32817 -8.11794,-1.78196 -0.30821,-0.43056 -0.69982,-0.81228 -0.92464,-1.29169 -1.31971,-2.81416 0.0919,-6.22497 1.48248,-8.68506 3.04341,-4.19759 1.00348,-1.82052 9.43557,-6.88451 2.59012,-1.55553 5.49588,-1.44668 8.31185,-0.653 3.1789,1.2506 7.14916,2.87566 8.38002,6.41682 0.17438,0.50167 0.1733,1.04798 0.25995,1.57197 -0.10451,0.45963 -0.13283,0.94353 -0.31352,1.37888 -1.31442,3.16701 -7.38029,5.21895 -8.69978,5.96933 -1.25899,0.71598 -2.77874,0.87397 -4.19114,0.88135 -0.43691,-0.0717 -0.88627,-0.0893 -1.31075,-0.21522 -2.10507,-0.62463 -2.29995,-2.16504 -1.84494,-4.04067 0.51524,-2.13935 1.11414,-4.27293 2.38312,-6.10615 0,0 7.6277,-3.1595 7.6277,-3.1595 z"
     inkscape:connector-curvature="0" />
  <path
     style="fill:#000000;fill-opacity:1;fill-rule:nonzero;stroke:none;stroke-width:1px;stroke-linecap:butt;stroke-linejoin:miter;stroke-opacity:1"
     id="path6123"
     d="m 407.78687,345.78461 c -0.0778,1.91829 0.47449,3.64404 1.57386,5.19631 0.57573,0.56 1.41309,1.5247 2.34417,1.40663 0.32247,-0.0409 0.64239,-0.38151 0.86148,-0.57106 -12.68514,7.22733 -5.60412,4.8801 -5.62156,1.35868 -10e-4,-0.23399 -0.061,-0.464 -0.0915,-0.696 -0.89329,-2.20262 -3.12142,-3.04419 -5.29636,-3.44206 -1.19093,-0.0196 -1.10009,-0.13303 -2.21839,0.29989 -0.34654,0.13416 -1.32583,0.67039 -1.00383,0.48491 10.44578,-6.0168 6.55669,-4.18916 4.56376,-2.06626 0.25076,-0.22067 -0.89778,1.19011 -0.52858,1.10315 0.1972,-0.0464 0.54879,-0.57672 0.3693,-0.48275 -2.22293,1.16387 -4.38733,2.43626 -6.58099,3.65439 1.29891,-1.14403 1.74937,-2.86343 1.73888,-4.5381 -0.23535,-1.28394 -1.40195,-2.35587 -2.75268,-2.40753 -0.24868,-0.01 -0.49178,0.0768 -0.73767,0.11512 -3.29242,1.81785 3.69313,-2.16581 5.62468,-3.08231 0.2856,-0.13551 -0.44637,0.46111 -0.58922,0.74311 -0.42147,0.83207 -0.25495,1.10156 -0.14869,1.9825 0,0 -7.10028,3.7686 -7.10028,3.7686 l 0,0 c -0.0876,-0.4216 -0.23769,-0.83492 -0.26282,-1.26479 -0.23502,-4.02036 5.81658,-6.37237 9.05441,-6.93763 2.09852,0.23419 3.56328,1.26805 4.12995,3.36621 0.1404,1.8763 -0.35217,3.63945 -1.33777,5.24754 -2.52642,1.45461 -4.99195,3.0205 -7.57925,4.36383 -0.58417,0.3033 -1.24262,-0.68368 -1.26644,-1.12055 -0.0264,-0.48327 0.3039,-0.95774 0.50852,-1.3488 2.41468,-3.13883 5.01686,-3.76475 9.21846,-6.07306 1.0547,-0.57944 2.33821,-0.55215 3.47976,-0.37369 2.46471,0.63319 4.77916,1.74513 5.8965,4.17801 1.18607,5.02434 -3.73304,5.77683 -7.87543,8.29432 -1.70229,0.41763 -2.72613,-0.66076 -3.768,-1.86696 -1.12458,-1.69522 -1.77293,-3.51237 -1.95491,-5.54631 0,0 7.35063,-3.74534 7.35063,-3.74534 z"
     inkscape:connector-curvature="0" />
  <path
     style="fill:#000000;fill-opacity:1;fill-rule:nonzero;stroke:none;stroke-width:1px;stroke-linecap:butt;stroke-linejoin:miter;stroke-opacity:1"
     id="path6127"
     d="m 385.48281,266.14797 c -0.21727,2.62169 -0.0373,5.25265 0.5189,7.82055 0.10865,0.25009 0.21729,0.50018 0.32593,0.75027 0,0 -7.09366,3.93856 -7.09366,3.93856 l 0,0 c -0.0982,-0.30602 -0.19635,-0.61203 -0.29452,-0.91805 -0.45008,-2.59634 -0.71532,-5.21999 -0.79078,-7.8544 0,0 7.33413,-3.73693 7.33413,-3.73693 z"
     inkscape:connector-curvature="0" />
  <path
     style="fill:#000000;fill-opacity:1;fill-rule:nonzero;stroke:none;stroke-width:1px;stroke-linecap:butt;stroke-linejoin:miter;stroke-opacity:1"
     id="path6129"
     d="m 363.2035,301.12212 c -0.1799,3.10048 -0.20456,6.20821 -0.23329,9.31305 -0.0392,3.65385 0.0489,7.30651 0.11178,10.95936 0.0399,1.52948 0.0504,3.05936 0.0679,4.5892 0,0 -7.25981,3.69905 -7.25981,3.69905 l 0,0 c 0.0175,-1.55287 0.0282,-3.1058 0.0679,-4.65833 0.0625,-3.69083 0.15036,-7.38148 0.11178,-11.07328 -0.0283,-3.02554 -0.0496,-6.05443 -0.23329,-9.07531 0,0 7.36713,-3.75374 7.36713,-3.75374 z"
     inkscape:connector-curvature="0" />
  <path
     style="fill:#000000;fill-opacity:1;fill-rule:nonzero;stroke:none;stroke-width:1px;stroke-linecap:butt;stroke-linejoin:miter;stroke-opacity:1"
     id="path6131"
     d="m 363.77338,327.43243 c 2.58152,-0.18667 5.1709,-0.22453 7.75768,-0.28199 2.03571,-0.0387 1.04133,-0.0192 2.98314,-0.0581 0,0 -6.44287,4.69341 -6.44287,4.69341 l 0,0 c -1.90029,0.009 -0.92356,-2.5e-4 -2.93019,0.0304 -2.65727,0.067 -5.3356,0.11314 -7.95978,0.57402 0,0 6.59202,-4.95775 6.59202,-4.95775 z"
     inkscape:connector-curvature="0" />
  <path
     style="fill:#000000;fill-opacity:1;fill-rule:nonzero;stroke:none;stroke-width:1px;stroke-linecap:butt;stroke-linejoin:miter;stroke-opacity:1"
     id="path6133"
     d="m 370.50323,300.79845 c 1.57311,-0.0189 3.12576,0.23849 4.68644,0.40099 0.65531,0.0679 1.31316,0.10114 1.97094,0.13237 0,0 -6.65336,4.77177 -6.65336,4.77177 l 0,0 c -0.65714,-0.0496 -1.31409,-0.10252 -1.96809,-0.18549 -1.56415,-0.19022 -3.13024,-0.4024 -4.71016,-0.27052 0,0 6.67423,-4.84912 6.67423,-4.84912 z"
     inkscape:connector-curvature="0" />
  <path
     style="fill:#000000;fill-opacity:1;fill-rule:nonzero;stroke:none;stroke-width:1px;stroke-linecap:butt;stroke-linejoin:miter;stroke-opacity:1"
     id="path6135"
     d="m 366.56036,301.23486 c 2.82559,-0.15676 5.63857,-0.45071 8.46519,-0.60749 3.17136,-0.16609 6.34654,-0.25212 9.52121,-0.32692 1.22019,-0.13713 0.65223,-0.017 1.71031,-0.32836 0,0 -6.48768,4.92445 -6.48768,4.92445 l 0,0 c -1.08858,0.14526 -0.5129,0.0926 -1.72847,0.14163 -3.1093,-0.006 -6.21942,0.0372 -9.32344,0.2344 -2.92401,0.21322 -5.85032,0.48027 -8.74914,0.92004 0,0 6.59202,-4.95775 6.59202,-4.95775 z"
     inkscape:connector-curvature="0" />
  <path
     style="fill:#000000;fill-opacity:1;fill-rule:nonzero;stroke:none;stroke-width:1px;stroke-linecap:butt;stroke-linejoin:miter;stroke-opacity:1"
     id="path6137"
     d="m 389.74328,298.63727 c -1.40008,1.23797 -2.52943,2.66268 -2.93299,4.50805 -0.11424,1.1484 0.0139,2.51666 1.48257,1.92269 2.11807,-2.30614 -0.15063,0.24766 -6.18608,3.29241 -0.20389,0.10286 0.27421,-0.36907 0.37122,-0.57581 0.38738,-0.82557 0.21676,-1.37506 -0.12667,-2.16552 -0.26546,-0.2393 -0.49977,-0.51854 -0.79639,-0.71791 -2.18877,-1.47113 -5.03449,-1.70865 -7.58161,-1.69783 -0.47656,0.0858 -0.96489,0.12162 -1.42968,0.25742 -0.40709,0.11894 -0.77944,0.33458 -1.16916,0.50187 1.99731,-1.12027 3.97153,-2.28275 5.99194,-3.36081 0.25643,-0.13683 -0.47722,0.33499 -0.69076,0.53218 -0.46112,0.42581 -0.5246,0.61448 -0.83057,1.13259 -0.2514,0.69723 0.0442,1.9205 0.98054,1.92468 0.19196,8.6e-4 0.37418,-0.086 0.56127,-0.12894 0.22642,-0.0552 0.45734,-0.0945 0.67926,-0.16569 0.73491,-0.23573 1.86076,-0.8628 1.44955,-0.62576 -10.77949,6.21377 -7.13989,4.57295 -5.09837,2.47764 0,0 7.50255,-3.1569 7.50255,-3.1569 l 0,0 c -2.48322,3.01765 -3.73888,2.88281 -8.78327,5.71071 -0.70871,0.3973 -1.58054,0.49899 -2.372,0.55175 -0.26128,-0.0517 -0.53587,-0.0579 -0.78385,-0.15507 -1.20296,-0.47148 -1.6544,-1.89677 -1.56987,-3.06461 0.30874,-0.74071 0.70315,-1.69319 1.43283,-2.13499 4.18647,-2.53479 6.31083,-4.65342 10.54218,-4.93388 2.69496,0.12695 5.72606,0.49006 7.9908,2.11828 0.37391,0.26882 0.67026,0.63171 1.00538,0.94756 0.17541,0.3416 0.40545,0.66028 0.52623,1.02479 1.2963,3.91229 -5.88569,6.85367 -8.21969,7.29894 -1.82614,-0.24076 -2.25296,-1.56486 -2.16582,-3.25179 0.27268,-2.05322 1.14909,-3.47385 2.61696,-4.91657 0,0 7.6035,-3.14948 7.6035,-3.14948 z"
     inkscape:connector-curvature="0" />
  <path
     style="fill:#000000;fill-opacity:1;fill-rule:nonzero;stroke:none;stroke-width:1px;stroke-linecap:butt;stroke-linejoin:miter;stroke-opacity:1"
     id="path6139"
     d="m 374.74695,327.10314 c -0.43956,-0.0699 -0.79068,-0.65622 -1.27082,-0.51381 -0.12678,0.0376 -0.4228,0.3148 -0.30643,0.25198 6.72299,-3.62932 8.47099,-5.61484 6.35519,-3.31472 -0.76839,1.70929 -0.88344,3.51788 -0.40481,5.31782 0.48231,1.12564 1.78369,3.13575 3.2275,3.10067 0.19791,-0.005 0.37534,-0.12605 0.563,-0.18908 2.30166,-2.26439 -0.16913,0.24866 -5.98015,3.13005 -0.23574,0.11689 0.33301,-0.40895 0.47488,-0.63055 0.4692,-0.73287 0.70868,-1.52167 0.94252,-2.34984 0.0129,-0.68179 0.45716,-2.00148 -0.13057,-2.59116 -0.15831,-0.15884 -0.48836,0.0333 -0.60664,0.0771 -2.58235,1.74053 0.43739,-0.31416 5.88431,-3.23545 0.25834,-0.13856 -0.48118,0.33627 -0.70602,0.52437 -0.62514,0.52297 -1.08163,1.11867 -1.52315,1.79467 -0.32645,-0.032 -0.74387,2.0153 -0.12435,1.71621 0.48604,-2.87391 0.0987,-0.14786 -6.83142,3.5793 -0.0873,0.047 0.21977,-0.0616 0.50613,-0.73438 0.19735,-0.46363 0.21963,-0.68636 0.32737,-1.18397 0.0314,-0.21727 0.0629,-0.43455 0.0943,-0.65183 0,0 7.32785,-3.62004 7.32785,-3.62004 l 0,0 c -0.0242,0.22968 -0.0485,0.45935 -0.0727,0.68903 -0.48877,3.41771 -2.86624,9.18955 -8.27129,6.49368 -0.93423,-0.81125 -0.92205,-1.89657 -0.40447,-2.97803 1.91406,-3.61365 6.88861,-6.80027 10.49666,-7.16755 0.19754,0.0729 0.41493,0.10581 0.59261,0.21882 1.1464,0.72914 0.80103,2.44587 0.75745,3.56243 -0.99918,4.6359 -3.75321,6.89895 -9.34182,8.20846 -0.24117,-0.0356 -0.49125,-0.0328 -0.7235,-0.10683 -1.70639,-0.54421 -2.83198,-2.2859 -3.56061,-3.79713 -0.10932,-0.3645 -0.25199,-0.72061 -0.32796,-1.09349 -0.31803,-1.5609 0.02,-3.21465 0.33272,-4.74602 1.07436,-3.05983 5.05546,-5.81624 8.23297,-4.92409 0.48525,0.13624 0.89642,0.48569 1.38664,0.61323 0,0 -6.91545,4.55012 -6.91545,4.55012 z"
     inkscape:connector-curvature="0" />
  <g
     id="g6234"
     transform="translate(-133.77486,11.147905)">
    <path
       inkscape:connector-curvature="0"
       id="path6141"
       d="m 238.16908,110.05486 46.74787,0"
       style="fill:none;fill-rule:evenodd;stroke:#ffffff;stroke-width:6.66932631;stroke-linecap:butt;stroke-linejoin:miter;stroke-miterlimit:4;stroke-dasharray:none;stroke-opacity:1" />
    <path
       inkscape:connector-curvature="0"
       id="path6143"
       d="m 302.69011,82.125617 -35.99437,0 0,60.936523 51.97527,0"
       style="fill:none;fill-rule:evenodd;stroke:#ffffff;stroke-width:6.66932631;stroke-linecap:butt;stroke-linejoin:round;stroke-miterlimit:4;stroke-dasharray:none;stroke-opacity:1" />
    <path
       sodipodi:nodetypes="cccc"
       inkscape:connector-curvature="0"
       id="path6145"
       d="m 302.40356,103.57515 -17.32509,0 0,21.99443 15.08478,0"
       style="fill:none;fill-rule:evenodd;stroke:#ffffff;stroke-width:6.66932631;stroke-linecap:butt;stroke-linejoin:round;stroke-miterlimit:4;stroke-dasharray:none;stroke-opacity:1" />
    <circle
       r="8.0651283"
       cy="103.48325"
       cx="303.34894"
       id="path6202"
       style="fill:#ffffff;stroke-width:8.80000019;stroke-linejoin:round;stroke-miterlimit:4;stroke-dasharray:none" />
    <circle
       style="fill:#ffffff;stroke-width:8.80000019;stroke-linejoin:round;stroke-miterlimit:4;stroke-dasharray:none"
       id="circle6204"
       cx="303.34894"
       cy="124.69157"
       r="8.0651283" />
    <circle
       r="8.0651283"
       cy="82.27491"
       cx="303.34894"
       id="circle6206"
       style="fill:#ffffff;stroke-width:8.80000019;stroke-linejoin:round;stroke-miterlimit:4;stroke-dasharray:none" />
    <circle
       style="fill:#ffffff;stroke-width:8.80000019;stroke-linejoin:round;stroke-miterlimit:4;stroke-dasharray:none"
       id="circle6208"
       cx="320.67404"
       cy="142.91277"
       r="8.0651283" />
    <circle
       style="fill:#ffffff;stroke-width:8.80000019;stroke-linejoin:round;stroke-miterlimit:4;stroke-dasharray:none"
       id="circle6212"
       cx="240.19452"
       cy="109.52213"
       r="13.768036" />
  </g>
</svg>
